<mxfile host="app.diagrams.net" modified="2024-06-28T13:13:15.744Z" agent="Mozilla/5.0 (Windows NT 10.0; Win64; x64) AppleWebKit/537.36 (KHTML, like Gecko) Chrome/126.0.0.0 Safari/537.36" etag="8WFmP4x2hjKA216A5W5_" version="24.6.4" type="github">
  <diagram name="‫עמוד-1‬" id="EkOi-DbPBrCH_i6XzQFY">
    <mxGraphModel dx="2607" dy="1251" grid="1" gridSize="10" guides="1" tooltips="1" connect="1" arrows="1" fold="1" page="1" pageScale="1" pageWidth="827" pageHeight="1169" math="0" shadow="0">
      <root>
        <mxCell id="0" />
        <mxCell id="1" parent="0" />
        <mxCell id="I3A-ml05NBHKzfa6DYjz-1" value="itemCTR:ItemControler" style="shape=umlLifeline;perimeter=lifelinePerimeter;whiteSpace=wrap;html=1;container=0;dropTarget=0;collapsible=0;recursiveResize=0;outlineConnect=0;portConstraint=eastwest;newEdgeStyle={&quot;edgeStyle&quot;:&quot;elbowEdgeStyle&quot;,&quot;elbow&quot;:&quot;vertical&quot;,&quot;curved&quot;:0,&quot;rounded&quot;:0};fontSize=19;" parent="1" vertex="1">
          <mxGeometry x="605" y="80" width="195" height="360" as="geometry" />
        </mxCell>
        <mxCell id="I3A-ml05NBHKzfa6DYjz-2" value="" style="html=1;points=[];perimeter=orthogonalPerimeter;outlineConnect=0;targetShapes=umlLifeline;portConstraint=eastwest;newEdgeStyle={&quot;edgeStyle&quot;:&quot;elbowEdgeStyle&quot;,&quot;elbow&quot;:&quot;vertical&quot;,&quot;curved&quot;:0,&quot;rounded&quot;:0};fontSize=19;" parent="I3A-ml05NBHKzfa6DYjz-1" vertex="1">
          <mxGeometry x="90" y="80" width="10" height="140" as="geometry" />
        </mxCell>
        <mxCell id="I3A-ml05NBHKzfa6DYjz-3" value="" style="html=1;verticalAlign=bottom;endArrow=block;edgeStyle=elbowEdgeStyle;elbow=vertical;curved=0;rounded=0;fontSize=19;" parent="1" target="I3A-ml05NBHKzfa6DYjz-2" edge="1">
          <mxGeometry relative="1" as="geometry">
            <mxPoint x="229.99999999999977" y="160" as="sourcePoint" />
            <Array as="points">
              <mxPoint x="325" y="160" />
            </Array>
          </mxGeometry>
        </mxCell>
        <mxCell id="I3A-ml05NBHKzfa6DYjz-4" value="&amp;lt;catNum, location&amp;gt; =&lt;br&gt;reportExp(int idToReport) " style="edgeLabel;html=1;align=center;verticalAlign=middle;resizable=0;points=[];fontSize=19;" parent="I3A-ml05NBHKzfa6DYjz-3" vertex="1" connectable="0">
          <mxGeometry x="0.0571" relative="1" as="geometry">
            <mxPoint as="offset" />
          </mxGeometry>
        </mxCell>
        <mxCell id="I3A-ml05NBHKzfa6DYjz-5" value="itemRepo:ItemRepo" style="shape=umlLifeline;perimeter=lifelinePerimeter;whiteSpace=wrap;html=1;container=0;dropTarget=0;collapsible=0;recursiveResize=0;outlineConnect=0;portConstraint=eastwest;newEdgeStyle={&quot;edgeStyle&quot;:&quot;elbowEdgeStyle&quot;,&quot;elbow&quot;:&quot;vertical&quot;,&quot;curved&quot;:0,&quot;rounded&quot;:0};fontSize=19;" parent="1" vertex="1">
          <mxGeometry x="935" y="80" width="190" height="370" as="geometry" />
        </mxCell>
        <mxCell id="I3A-ml05NBHKzfa6DYjz-6" value="" style="html=1;points=[];perimeter=orthogonalPerimeter;outlineConnect=0;targetShapes=umlLifeline;portConstraint=eastwest;newEdgeStyle={&quot;edgeStyle&quot;:&quot;elbowEdgeStyle&quot;,&quot;elbow&quot;:&quot;vertical&quot;,&quot;curved&quot;:0,&quot;rounded&quot;:0};fontSize=19;" parent="I3A-ml05NBHKzfa6DYjz-5" vertex="1">
          <mxGeometry x="90" y="80" width="10" height="70" as="geometry" />
        </mxCell>
        <mxCell id="I3A-ml05NBHKzfa6DYjz-7" value="" style="html=1;points=[];perimeter=orthogonalPerimeter;outlineConnect=0;targetShapes=umlLifeline;portConstraint=eastwest;newEdgeStyle={&quot;edgeStyle&quot;:&quot;elbowEdgeStyle&quot;,&quot;elbow&quot;:&quot;vertical&quot;,&quot;curved&quot;:0,&quot;rounded&quot;:0};fontSize=19;" parent="I3A-ml05NBHKzfa6DYjz-5" vertex="1">
          <mxGeometry x="90" y="200" width="10" height="20" as="geometry" />
        </mxCell>
        <mxCell id="I3A-ml05NBHKzfa6DYjz-8" style="edgeStyle=elbowEdgeStyle;rounded=0;orthogonalLoop=1;jettySize=auto;html=1;elbow=vertical;curved=0;fontSize=19;" parent="1" edge="1">
          <mxGeometry relative="1" as="geometry">
            <mxPoint x="705" y="290.0013793103449" as="sourcePoint" />
            <mxPoint x="1029.5" y="290.0689655172414" as="targetPoint" />
          </mxGeometry>
        </mxCell>
        <mxCell id="I3A-ml05NBHKzfa6DYjz-9" value="reportExpRepo(&lt;div&gt;int idToReport) &lt;/div&gt;" style="edgeLabel;html=1;align=center;verticalAlign=middle;resizable=0;points=[];fontSize=19;" parent="I3A-ml05NBHKzfa6DYjz-8" vertex="1" connectable="0">
          <mxGeometry x="-0.1297" y="2" relative="1" as="geometry">
            <mxPoint as="offset" />
          </mxGeometry>
        </mxCell>
        <mxCell id="I3A-ml05NBHKzfa6DYjz-10" style="edgeStyle=elbowEdgeStyle;rounded=0;orthogonalLoop=1;jettySize=auto;html=1;elbow=vertical;curved=0;fontSize=19;" parent="1" edge="1">
          <mxGeometry relative="1" as="geometry">
            <mxPoint x="705" y="170.28137931034487" as="sourcePoint" />
            <mxPoint x="1029.5" y="170.28137931034487" as="targetPoint" />
          </mxGeometry>
        </mxCell>
        <mxCell id="I3A-ml05NBHKzfa6DYjz-11" value="reported = find(idToRem)" style="edgeLabel;html=1;align=center;verticalAlign=middle;resizable=0;points=[];fontSize=19;" parent="I3A-ml05NBHKzfa6DYjz-10" vertex="1" connectable="0">
          <mxGeometry x="-0.0722" y="-1" relative="1" as="geometry">
            <mxPoint x="19" y="-1" as="offset" />
          </mxGeometry>
        </mxCell>
        <mxCell id="I3A-ml05NBHKzfa6DYjz-12" value="" style="html=1;verticalAlign=bottom;endArrow=open;dashed=1;endSize=8;curved=0;rounded=0;fontSize=19;" parent="1" target="I3A-ml05NBHKzfa6DYjz-1" edge="1">
          <mxGeometry relative="1" as="geometry">
            <mxPoint x="1025" y="220" as="sourcePoint" />
            <mxPoint x="945" y="220" as="targetPoint" />
          </mxGeometry>
        </mxCell>
        <mxCell id="I3A-ml05NBHKzfa6DYjz-13" value="reported&amp;nbsp;" style="edgeLabel;html=1;align=center;verticalAlign=middle;resizable=0;points=[];fontSize=19;" parent="I3A-ml05NBHKzfa6DYjz-12" vertex="1" connectable="0">
          <mxGeometry x="0.0313" relative="1" as="geometry">
            <mxPoint as="offset" />
          </mxGeometry>
        </mxCell>
        <mxCell id="I3A-ml05NBHKzfa6DYjz-14" value="" style="html=1;verticalAlign=bottom;endArrow=open;dashed=1;endSize=8;curved=0;rounded=0;fontSize=19;" parent="1" edge="1">
          <mxGeometry relative="1" as="geometry">
            <mxPoint x="700" y="240" as="sourcePoint" />
            <mxPoint x="234.66666666666663" y="240" as="targetPoint" />
          </mxGeometry>
        </mxCell>
        <mxCell id="I3A-ml05NBHKzfa6DYjz-15" value="&amp;lt;catNum, location&amp;gt;" style="edgeLabel;html=1;align=center;verticalAlign=middle;resizable=0;points=[];fontSize=19;" parent="I3A-ml05NBHKzfa6DYjz-14" vertex="1" connectable="0">
          <mxGeometry x="-0.0193" y="2" relative="1" as="geometry">
            <mxPoint as="offset" />
          </mxGeometry>
        </mxCell>
        <mxCell id="I3A-ml05NBHKzfa6DYjz-16" value="prodCTR:ProductControler" style="shape=umlLifeline;perimeter=lifelinePerimeter;whiteSpace=wrap;html=1;container=0;dropTarget=0;collapsible=0;recursiveResize=0;outlineConnect=0;portConstraint=eastwest;newEdgeStyle={&quot;edgeStyle&quot;:&quot;elbowEdgeStyle&quot;,&quot;elbow&quot;:&quot;vertical&quot;,&quot;curved&quot;:0,&quot;rounded&quot;:0};fontSize=19;" parent="1" vertex="1">
          <mxGeometry x="1205" y="80" width="230" height="380" as="geometry" />
        </mxCell>
        <mxCell id="I3A-ml05NBHKzfa6DYjz-17" value="" style="html=1;points=[];perimeter=orthogonalPerimeter;outlineConnect=0;targetShapes=umlLifeline;portConstraint=eastwest;newEdgeStyle={&quot;edgeStyle&quot;:&quot;elbowEdgeStyle&quot;,&quot;elbow&quot;:&quot;vertical&quot;,&quot;curved&quot;:0,&quot;rounded&quot;:0};fontSize=19;" parent="I3A-ml05NBHKzfa6DYjz-16" vertex="1">
          <mxGeometry x="110" y="250" width="10" height="90" as="geometry" />
        </mxCell>
        <mxCell id="I3A-ml05NBHKzfa6DYjz-18" style="edgeStyle=elbowEdgeStyle;rounded=0;orthogonalLoop=1;jettySize=auto;html=1;elbow=vertical;curved=0;fontSize=19;" parent="1" target="I3A-ml05NBHKzfa6DYjz-17" edge="1">
          <mxGeometry relative="1" as="geometry">
            <mxPoint x="240" y="340" as="sourcePoint" />
            <mxPoint x="1299.5000000000002" y="339.9966666666667" as="targetPoint" />
            <Array as="points">
              <mxPoint x="390" y="340" />
            </Array>
          </mxGeometry>
        </mxCell>
        <mxCell id="I3A-ml05NBHKzfa6DYjz-19" value="removeItemCTR(catNum, location) " style="edgeLabel;html=1;align=center;verticalAlign=middle;resizable=0;points=[];fontSize=19;" parent="I3A-ml05NBHKzfa6DYjz-18" vertex="1" connectable="0">
          <mxGeometry x="-0.0565" y="-1" relative="1" as="geometry">
            <mxPoint as="offset" />
          </mxGeometry>
        </mxCell>
        <mxCell id="I3A-ml05NBHKzfa6DYjz-20" value="prodMng:ProductControler" style="shape=umlLifeline;perimeter=lifelinePerimeter;whiteSpace=wrap;html=1;container=0;dropTarget=0;collapsible=0;recursiveResize=0;outlineConnect=0;portConstraint=eastwest;newEdgeStyle={&quot;edgeStyle&quot;:&quot;elbowEdgeStyle&quot;,&quot;elbow&quot;:&quot;vertical&quot;,&quot;curved&quot;:0,&quot;rounded&quot;:0};fontSize=19;" parent="1" vertex="1">
          <mxGeometry x="1595" y="80" width="230" height="380" as="geometry" />
        </mxCell>
        <mxCell id="I3A-ml05NBHKzfa6DYjz-21" value="" style="html=1;points=[];perimeter=orthogonalPerimeter;outlineConnect=0;targetShapes=umlLifeline;portConstraint=eastwest;newEdgeStyle={&quot;edgeStyle&quot;:&quot;elbowEdgeStyle&quot;,&quot;elbow&quot;:&quot;vertical&quot;,&quot;curved&quot;:0,&quot;rounded&quot;:0};fontSize=19;" parent="I3A-ml05NBHKzfa6DYjz-20" vertex="1">
          <mxGeometry x="110" y="280" width="10" height="50" as="geometry" />
        </mxCell>
        <mxCell id="I3A-ml05NBHKzfa6DYjz-22" style="edgeStyle=elbowEdgeStyle;rounded=0;orthogonalLoop=1;jettySize=auto;html=1;elbow=vertical;curved=0;fontSize=19;" parent="1" target="I3A-ml05NBHKzfa6DYjz-20" edge="1">
          <mxGeometry relative="1" as="geometry">
            <mxPoint x="1345" y="375" as="sourcePoint" />
            <Array as="points">
              <mxPoint x="1325" y="375" />
            </Array>
          </mxGeometry>
        </mxCell>
        <mxCell id="I3A-ml05NBHKzfa6DYjz-23" value="removeItemMng(catNum, location)" style="edgeLabel;html=1;align=center;verticalAlign=middle;resizable=0;points=[];fontSize=19;" parent="I3A-ml05NBHKzfa6DYjz-22" vertex="1" connectable="0">
          <mxGeometry x="-0.0775" y="-1" relative="1" as="geometry">
            <mxPoint as="offset" />
          </mxGeometry>
        </mxCell>
        <mxCell id="I3A-ml05NBHKzfa6DYjz-24" value="prodRepo:ProductRepo" style="shape=umlLifeline;perimeter=lifelinePerimeter;whiteSpace=wrap;html=1;container=0;dropTarget=0;collapsible=0;recursiveResize=0;outlineConnect=0;portConstraint=eastwest;newEdgeStyle={&quot;edgeStyle&quot;:&quot;elbowEdgeStyle&quot;,&quot;elbow&quot;:&quot;vertical&quot;,&quot;curved&quot;:0,&quot;rounded&quot;:0};fontSize=19;" parent="1" vertex="1">
          <mxGeometry x="2040" y="70" width="225" height="400" as="geometry" />
        </mxCell>
        <mxCell id="I3A-ml05NBHKzfa6DYjz-25" value="" style="html=1;points=[];perimeter=orthogonalPerimeter;outlineConnect=0;targetShapes=umlLifeline;portConstraint=eastwest;newEdgeStyle={&quot;edgeStyle&quot;:&quot;elbowEdgeStyle&quot;,&quot;elbow&quot;:&quot;vertical&quot;,&quot;curved&quot;:0,&quot;rounded&quot;:0};fontSize=19;" parent="I3A-ml05NBHKzfa6DYjz-24" vertex="1">
          <mxGeometry x="105" y="310" width="10" height="30" as="geometry" />
        </mxCell>
        <mxCell id="I3A-ml05NBHKzfa6DYjz-26" style="edgeStyle=elbowEdgeStyle;rounded=0;orthogonalLoop=1;jettySize=auto;html=1;elbow=vertical;curved=0;fontSize=19;" parent="1" target="I3A-ml05NBHKzfa6DYjz-24" edge="1">
          <mxGeometry relative="1" as="geometry">
            <mxPoint x="1755" y="395" as="sourcePoint" />
            <Array as="points">
              <mxPoint x="1715" y="395" />
            </Array>
          </mxGeometry>
        </mxCell>
        <mxCell id="I3A-ml05NBHKzfa6DYjz-27" value="&lt;span style=&quot;font-size: 19px; background-color: rgb(251, 251, 251);&quot;&gt;removeItemRepo(catNum, location)&lt;/span&gt;" style="edgeLabel;html=1;align=center;verticalAlign=middle;resizable=0;points=[];fontSize=19;" parent="I3A-ml05NBHKzfa6DYjz-26" vertex="1" connectable="0">
          <mxGeometry x="-0.0852" y="-2" relative="1" as="geometry">
            <mxPoint as="offset" />
          </mxGeometry>
        </mxCell>
        <mxCell id="I3A-ml05NBHKzfa6DYjz-28" value="fac:Facade" style="shape=umlLifeline;perimeter=lifelinePerimeter;whiteSpace=wrap;html=1;container=0;dropTarget=0;collapsible=0;recursiveResize=0;outlineConnect=0;portConstraint=eastwest;newEdgeStyle={&quot;edgeStyle&quot;:&quot;elbowEdgeStyle&quot;,&quot;elbow&quot;:&quot;vertical&quot;,&quot;curved&quot;:0,&quot;rounded&quot;:0};fontSize=19;" parent="1" vertex="1">
          <mxGeometry x="180" y="80" width="100" height="440" as="geometry" />
        </mxCell>
        <mxCell id="I3A-ml05NBHKzfa6DYjz-29" value="" style="html=1;points=[];perimeter=orthogonalPerimeter;outlineConnect=0;targetShapes=umlLifeline;portConstraint=eastwest;newEdgeStyle={&quot;edgeStyle&quot;:&quot;elbowEdgeStyle&quot;,&quot;elbow&quot;:&quot;vertical&quot;,&quot;curved&quot;:0,&quot;rounded&quot;:0};fontSize=19;" parent="I3A-ml05NBHKzfa6DYjz-28" vertex="1">
          <mxGeometry x="45" y="70" width="10" height="320" as="geometry" />
        </mxCell>
        <mxCell id="I3A-ml05NBHKzfa6DYjz-30" value="&lt;font style=&quot;font-size: 21px;&quot;&gt;SD ReportExpired&lt;/font&gt;" style="shape=umlFrame;whiteSpace=wrap;html=1;pointerEvents=0;width=170;height=50;" parent="1" vertex="1">
          <mxGeometry x="40" y="20" width="2330" height="530" as="geometry" />
        </mxCell>
      </root>
    </mxGraphModel>
  </diagram>
</mxfile>
